<svg xmlns="http://www.w3.org/2000/svg" xmlns:xlink="http://www.w3.org/1999/xlink" width="1024" height="1024" viewbox="0 0 1024 1024"><defs><linearGradient id="lgrad" x1="0%" x2="0%" y1="0%" y2="100%"><stop offset="0%" stop-color="#f8f8f8"/><stop offset="100%" stop-color="#ccc"/></linearGradient><radialGradient id="rgrad" x1="0%" x2="0%" y1="0%" y2="100%" fx="50%" fy="48%"><stop offset="0%" stop-color="#00f0ff"/><stop offset="100%" stop-color="#0070e0"/></radialGradient></defs><circle cx="512" cy="512" r="480" fill="url(#lgrad)"/><circle cx="512" cy="512" r="440" fill="url(#rgrad)"/><g stroke="#ddd" stroke-linecap="round" stroke-width="10"><g id="t16"><g id="t8"><g id="t4"><g id="t2"><line x1="512" x2="512" y1="100" y2="170"/><line x1="512" x2="512" y1="924" y2="854"/><line x1="512" x2="512" y1="100" y2="130" transform="rotate(5.625 512 512)"/><line x1="512" x2="512" y1="924" y2="894" transform="rotate(5.625 512 512)"/></g><use transform="rotate(90 512 512)" xlink:href="#t2"/></g><use transform="rotate(45 512 512)" xlink:href="#t4"/></g><use transform="rotate(22.5 512 512)" xlink:href="#t8"/></g><use transform="rotate(11.25 512 512)" xlink:href="#t16"/></g><g transform="rotate(-45 512 512)"><polygon fill="#ddd" points="85 512 512 450 512 512"/><polygon fill="#e44" points="512 450 939 512 512 512"/><polygon fill="#c00" points="939 512 512 574 512 512"/><polygon fill="#aaa" points="85 512 512 574 512 512"/></g></svg>